HIERARCHY
ROOT Hips
{
  OFFSET -69.4423 88.0299 51.6846
  CHANNELS 6 Xposition Yposition Zposition Zrotation Xrotation Yrotation
  JOINT Spine
  {
    OFFSET 12.0259 -0.162853 1.93176e-005
    CHANNELS 3 Zrotation Xrotation Yrotation
    JOINT Spine1
    {
      OFFSET 15.3169 -0.0121909 0
      CHANNELS 3 Zrotation Xrotation Yrotation
      JOINT Spine2
      {
        OFFSET 15.3176 -0.0121922 0
        CHANNELS 3 Zrotation Xrotation Yrotation
        JOINT Neck
        {
          OFFSET 19.9142 1.56236 0
          CHANNELS 3 Zrotation Xrotation Yrotation
          JOINT Head
          {
            OFFSET 6.92646 0 0
            CHANNELS 3 Zrotation Xrotation Yrotation
            End Site
            {
              OFFSET 20.7666 0 0
            }
          }
          JOINT LeftShoulder
          {
            OFFSET -4.94072 -1.14703 8.14416
            CHANNELS 3 Zrotation Xrotation Yrotation
            JOINT LeftArm
            {
              OFFSET 14.108 0 -2.74767e-005
              CHANNELS 3 Zrotation Xrotation Yrotation
              JOINT LeftForeArm
              {
                OFFSET 28.5802 -0.0783412 -0.0284884
                CHANNELS 3 Zrotation Xrotation Yrotation
                JOINT LeftHand
                {
                  OFFSET 27.092 0 0
                  CHANNELS 3 Zrotation Xrotation Yrotation
                  End Site
                  {
                    OFFSET 9.55928 -0.186424 0.145352
                  }
                }
              }
            }
          }
          JOINT RightShoulder
          {
            OFFSET -7.15748 -1.33027 -6.24935
            CHANNELS 3 Zrotation Xrotation Yrotation
            JOINT RightArm
            {
              OFFSET 14.108 0 1.82997e-005
              CHANNELS 3 Zrotation Xrotation Yrotation
              JOINT RightForeArm
              {
                OFFSET 28.5802 -0.0707221 2.30684e-005
                CHANNELS 3 Zrotation Xrotation Yrotation
                JOINT RightHand
                {
                  OFFSET 27.092 0 -1.30073e-005
                  CHANNELS 3 Zrotation Xrotation Yrotation
                  End Site
                  {
                    OFFSET 9.55929 -0.186417 -0.145354
                  }
                }
              }
            }
          }
        }
      }
    }
  }
  JOINT LeftUpLeg
  {
    OFFSET 0.00499725 -0.534999 8.837
    CHANNELS 3 Zrotation Xrotation Yrotation
    JOINT LeftLeg
    {
      OFFSET 39.9035 -0.00124594 0.000252775
      CHANNELS 3 Zrotation Xrotation Yrotation
      JOINT LeftFoot
      {
        OFFSET 39.6689 0 0
        CHANNELS 3 Zrotation Xrotation Yrotation
        JOINT LeftToe
        {
          OFFSET 10.1624 13.6296 0
          CHANNELS 3 Zrotation Xrotation Yrotation
          End Site
          {
            OFFSET 8.38147 0 0
          }
        }
      }
    }
  }
  JOINT RightUpLeg
  {
    OFFSET 0.00499725 -0.535 -8.837
    CHANNELS 3 Zrotation Xrotation Yrotation
    JOINT RightLeg
    {
      OFFSET 39.9036 -0.000268477 0.000106433
      CHANNELS 3 Zrotation Xrotation Yrotation
      JOINT RightFoot
      {
        OFFSET 39.6689 1.17892e-005 0
        CHANNELS 3 Zrotation Xrotation Yrotation
        JOINT RightToe
        {
          OFFSET 10.1624 13.6296 0
          CHANNELS 3 Zrotation Xrotation Yrotation
          End Site
          {
            OFFSET 8.38147 0 0
          }
        }
      }
    }
  }
}
MOTION
Frames:	13
Frame Time:	0.0333333
-72.9319 87.9889 82.9403 -97.3637 39.3599 -174.762 -0.69597 0.114618 0.00155576 -1.39195 0.229773 0.00468093 -1.39195 0.229749 0.00466868 -17.6246 -3.21567 -14.3518 43.2106 -2.10832 16.2314 -165.387 -6.54311 -96.5113 -22.9784 8.79528 85.6081 -23.6965 2.41686 -14.9557 34.9339 -87.76 37.5079 -165.231 -8.27296 71.8899 -8.33464 -5.9542 -85.8643 -23.057 -2.66099 14.1392 2.59706 81.4305 -2.47239 -7.58632 -1.53483 178.695 -23.2538 1.02793 -1.30975 5.52748 2.61742 0.893694 90 1.03368e-014 6.36111e-015 -11.5616 -1.61417 -178.128 -32.8022 -0.534432 0.432691 7.84542 5.48394 -0.881531 90 1.11319e-014 3.18055e-015 
-73.0051 88.0227 82.9273 -97.3524 39.0994 -174.773 -0.677975 0.038745 0.0243183 -1.35597 0.0776384 0.0492547 -1.35597 0.0776564 0.0492443 -17.6651 -3.17144 -14.7181 43.1536 -2.14308 16.2264 -165.383 -6.63531 -96.8384 -22.6163 8.90858 85.8583 -23.2546 2.34377 -14.7208 30.0576 -87.425 32.6216 -165.232 -8.31551 71.5112 -8.34684 -6.36247 -85.9326 -22.608 -2.56589 13.8974 2.46722 81.2138 -2.33684 -7.727 -1.43711 178.751 -23.3123 1.02622 -1.30662 5.47775 2.91785 0.909107 90 -2.38542e-015 -0 -11.5523 -1.64647 -178.078 -32.7193 -0.520286 0.43489 7.80986 5.70856 -0.86231 90 1.59028e-015 9.54166e-015 
-73.0908 88.0054 82.9247 -97.2851 39.178 -174.85 -0.641853 0.0304434 0.0800232 -1.28373 0.0605026 0.160558 -1.28373 0.0604853 0.160547 -17.7042 -3.19204 -14.3765 43.3487 -2.10632 16.1517 -165.322 -6.59585 -96.508 -22.748 9.12667 86.2747 -23.1457 2.32267 -14.6592 30.501 -87.4894 33.0839 -165.15 -8.22583 71.8247 -7.98168 -6.61307 -85.799 -22.3912 -2.52063 13.7784 2.43161 80.9473 -2.29248 -7.74867 -1.59133 178.781 -23.3993 1.03245 -1.30648 5.52779 2.70053 0.902003 90 2.38542e-015 9.54166e-015 -11.5182 -1.68538 -178.02 -32.6368 -0.518798 0.431467 7.74951 5.66052 -0.851168 90 1.74931e-014 1.27222e-014 
-73.2208 88.0278 82.9325 -97.3371 39.2539 -175.073 -0.613278 -0.0508894 0.196965 -1.22636 -0.103415 0.393544 -1.22638 -0.103418 0.393534 -17.844 -2.95457 -15.6841 43.3061 -1.56111 16.7628 -165.283 -6.79794 -97.7757 -22.16 8.9178 86.5376 -22.7682 2.26452 -14.4745 27.4819 -87.2801 30.0561 -165.131 -8.41091 70.5084 -7.92494 -6.73872 -85.6653 -22.2789 -2.50182 13.7198 2.44587 80.8031 -2.30455 -8.01979 -1.37596 179.108 -23.7342 1.03227 -1.30094 5.59389 2.67819 0.909746 90 -6.36111e-015 -9.54166e-015 -11.4567 -1.84048 -177.75 -32.3685 -0.524666 0.438196 7.66711 5.45553 -0.856028 90 1.59028e-015 3.18055e-015 
-73.2984 88.017 82.8106 -97.2861 38.9738 -174.946 -0.585337 -0.114854 0.171154 -1.17035 -0.231001 0.341313 -1.17035 -0.231005 0.341293 -17.5955 -3.00987 -13.9311 43.339 -1.9683 15.4917 -165.359 -6.30059 -96.182 -23.3173 9.70512 86.8474 -23.4336 2.36207 -14.7919 35.7957 -87.8446 38.389 -165.152 -7.84742 72.1788 -8.00084 -6.87043 -85.6302 -22.3003 -2.5014 13.7279 2.58896 81.3417 -2.4456 -8.30505 -1.41367 178.948 -24.0281 1.02812 -1.28408 5.50209 3.18476 0.927672 90 3.97569e-015 -3.18055e-015 -11.4021 -2.27487 -178.031 -32.1889 -0.532586 0.447402 8.49893 5.1778 -1.00565 90 -3.18055e-015 1.27222e-014 
-73.3632 88.1069 82.524 -97.2165 38.9457 -174.264 -0.532896 -0.157388 0.0443605 -1.06566 -0.314703 0.0874371 -1.06567 -0.314724 0.0874184 -17.8275 -2.84432 -14.3527 43.8204 -1.31136 16.0244 -165.051 -6.25541 -96.3433 -17.9867 6.98191 85.9097 -20.4836 1.93855 -13.3277 10.597 -83.0199 12.9763 -164.97 -7.97222 71.6908 -7.25016 -6.58741 -85.5215 -22.1219 -2.47468 13.6509 2.5734 80.8574 -2.43482 -8.45401 -0.511291 178.283 -23.8797 1.02246 -1.26293 5.03648 4.1702 0.953085 90 6.36111e-015 6.36111e-015 -11.6393 -1.76096 -178.894 -32.3637 -0.537255 0.451406 8.55833 4.95858 -1.01962 90 -6.36111e-015 3.18055e-015 
-73.4182 88.148 82.2681 -97.0291 38.1031 -174.07 -0.499342 -0.302073 0.0427961 -0.998449 -0.604048 0.0831323 -0.998462 -0.604071 0.0831173 -17.5783 -2.71357 -15.371 43.4218 -1.34136 15.9795 -165.489 -6.41877 -97.6522 -24.176 9.9544 87.0264 -24.0499 2.46294 -15.1236 59.4605 -88.5503 62.1285 -165.286 -8.02475 70.7573 -6.40824 -6.44958 -85.4185 -22.2715 -2.49874 13.7137 2.41586 80.9456 -2.27833 -8.94216 0.743213 178.326 -24.2927 1.0165 -1.20194 4.7049 7.20014 1.11032 90 1.27222e-014 6.36111e-015 -11.4133 -2.677 -179.522 -32.1372 -0.535995 0.442532 8.36263 5.04161 -0.977504 90 1.59028e-015 -6.36111e-015 
-73.508 88.2136 81.7643 -96.6736 37.1786 -174.26 -0.363261 -0.414196 0.0775768 -0.725963 -0.828488 0.152699 -0.725983 -0.828466 0.152688 -17.6693 -2.68244 -15.2706 43.3061 -1.62406 15.5122 -165.37 -6.33144 -97.5591 -24.4679 9.53124 87.0035 -24.4591 2.53802 -15.3786 53.3727 -88.4793 56.0147 -165.18 -8.02518 70.8801 -6.5923 -6.23864 -85.3283 -22.4815 -2.54807 13.8378 2.72003 81.5132 -2.59229 -9.39446 -0.229708 178.272 -24.7142 1.01303 -1.19272 4.71443 7.97134 1.14066 90 0 6.36111e-015 -11.5612 -3.62842 179.978 -32.3015 -0.53606 0.431474 8.16846 5.20126 -0.93306 90 -1.59028e-015 -3.18055e-015 
-73.5343 88.2095 81.2319 -96.1992 36.5191 -174.295 -0.160101 -0.459289 0.102278 -0.319297 -0.918399 0.210633 -0.319293 -0.918408 0.210617 -18.0176 -2.32542 -15.5803 43.2495 -1.33877 15.0258 -164.904 -6.065 -97.7755 -22.8137 7.33401 86.5593 -23.1703 2.34877 -14.8043 24.6453 -86.9096 27.1733 -164.811 -7.94125 70.5103 -7.7129 -6.18086 -84.6969 -23.0062 -2.6575 14.1223 3.19544 82.8187 -3.08491 -9.53239 -0.200968 178.367 -25.0188 1.00273 -1.15766 5.35272 9.9327 1.1591 90 -6.36111e-015 -1.27222e-014 -11.564 -3.21293 179.433 -32.5048 -0.537311 0.422305 7.06134 5.42119 -0.729651 90 -1.11319e-014 -3.18055e-015 
-73.4345 88.2697 80.7491 -95.648 35.6399 -174.311 0.0488757 -0.435357 0.105767 0.0985678 -0.870126 0.21207 0.0985553 -0.870161 0.212059 -17.7848 -2.42656 -14.0862 42.8758 -2.15563 13.5197 -164.952 -5.58199 -96.3669 -23.8422 6.4822 86.4872 -23.4831 2.40078 -15.0068 22.9293 -86.7092 25.4678 -164.86 -7.54224 71.9396 -8.93804 -6.21455 -84.0624 -23.5688 -2.78026 14.4257 3.47201 83.5042 -3.36543 -9.68182 -0.543094 178.725 -25.6806 0.97157 -1.07555 6.90239 14.0622 0.979458 90 4.77083e-015 -9.54166e-015 -11.1788 -3.53438 178.773 -32.4025 -0.53899 0.428014 6.58962 5.9618 -0.595315 90 2.06736e-014 1.27222e-014 
-73.4684 88.4391 80.2621 -95.2847 35.0974 -174.814 0.188011 -0.359632 0.192854 0.377272 -0.718099 0.387064 0.377251 -0.718124 0.38705 -16.6865 -2.59952 -12.8214 41.2704 -3.53989 11.3975 -165.901 -5.03415 -95.2915 -24.5915 5.89404 86.5646 -24.3107 2.53685 -15.4823 18.9025 -86.3387 21.3488 -165.801 -7.08112 73.0773 -9.33397 -5.98716 -83.3214 -23.7369 -2.81442 14.5098 3.12959 82.9673 -3.02384 -10.543 -0.862044 -179.885 -27.1819 0.939916 -1.0159 7.47649 15.839 0.887488 90 -3.97569e-015 -1.27222e-014 -10.6933 -3.7143 178.862 -31.5392 -0.540342 0.435983 6.19616 6.32221 -0.487785 90 1.59028e-015 -6.36111e-015 
-73.4406 88.5773 79.8153 -94.9647 35.2657 -175.32 0.296429 -0.229213 0.327191 0.59421 -0.456229 0.655738 0.594193 -0.456245 0.655727 -16.9276 -2.30574 -13.7667 42.9517 -1.88017 12.9598 -165.733 -5.10997 -96.3557 -25.9534 6.14206 86.9847 -25.994 2.83653 -16.3747 22.4144 -86.9554 24.9376 -165.589 -7.20953 72.1457 -8.71721 -5.27547 -82.3794 -23.557 -2.77369 14.4028 2.78017 82.2211 -2.67286 -10.8621 -1.33078 -178.026 -28.4231 0.931908 -1.06274 7.73331 10.345 1.05167 90 -2.38542e-014 -9.54166e-015 -10.0038 -3.35101 179.096 -30.0978 -0.54061 0.455682 4.46592 7.23918 -0.0630689 90 -1.43125e-014 -1.59028e-014 
-73.2116 89.0304 79.1208 -94.9438 34.889 -175.104 0.340678 -0.15444 0.277643 0.682113 -0.306736 0.556367 0.682106 -0.306752 0.556354 -16.7184 -2.33336 -13.6379 43.5437 -1.80654 12.9284 -165.94 -5.03289 -96.3038 -26.5353 6.12395 87.0912 -27.0887 3.04533 -16.9596 19.9471 -86.6546 22.4714 -165.765 -7.17768 72.2923 -7.79554 -4.55164 -81.9179 -23.5314 -2.77284 14.3878 2.95685 82.4392 -2.84762 -11.0833 -2.30707 -176.559 -28.5865 0.93206 -1.16009 7.21905 4.42354 1.0729 90 3.18055e-015 -3.18055e-015 -9.72097 -3.50564 178.321 -29.3477 -0.539037 0.4749 4.65064 6.69642 -0.125318 90 4.77083e-015 -6.36111e-015 
